<svg width="373" height="304" viewBox="0 0 373 304" fill="none" xmlns="http://www.w3.org/2000/svg">
<rect width="317" height="304" rx="42" fill="black"/>
<g filter="url(#filter0_d_307_16)">
<path d="M86.8594 144.125C86.7031 144.672 86.6641 145.023 86.7422 145.18C86.8203 145.336 86.8594 145.492 86.8594 145.648C86.7812 146.039 86.7031 146.43 86.625 146.82C86.625 147.133 86.5469 147.484 86.3906 147.875C86.1562 149.047 85.8828 150.219 85.5703 151.391C85.2578 152.562 84.7891 153.656 84.1641 154.672C83.6953 155.297 83.3828 155.766 83.2266 156.078C83.0703 156.391 82.9141 156.664 82.7578 156.898C81.6641 158.305 81.0391 159.398 80.8828 160.18C80.4922 160.57 80.0625 161 79.5938 161.469C79.125 161.859 78.5781 162.25 77.9531 162.641C77.1719 163.188 76.4688 163.695 75.8438 164.164C75.2969 164.555 74.5938 164.633 73.7344 164.398C73.3438 164.789 72.9141 165.062 72.4453 165.219C71.9766 165.297 71.5469 165.414 71.1562 165.57C70.5312 165.961 70.0234 166.234 69.6328 166.391C69.3203 166.469 69.0078 166.586 68.6953 166.742C68.3047 166.898 67.9922 167.016 67.7578 167.094C67.5234 167.094 67.3281 167.133 67.1719 167.211C66.7812 167.68 66.3906 167.914 66 167.914C65.1406 168.305 64.3984 168.617 63.7734 168.852C63.1484 169.086 62.5234 169.164 61.8984 169.086C61.1953 169.008 60.7266 169.008 60.4922 169.086C60.2578 169.164 60.0625 169.242 59.9062 169.32C58.8125 169.398 57.9922 169.516 57.4453 169.672C56.8984 169.75 56.3516 169.711 55.8047 169.555C55.4922 169.711 55.1797 169.867 54.8672 170.023C54.5547 170.102 54.2031 170.18 53.8125 170.258C53.4219 170.414 53.0703 170.453 52.7578 170.375C52.4453 170.297 52.0156 170.258 51.4688 170.258C50.4531 170.492 49.6719 170.609 49.125 170.609C48.5781 170.531 48.1094 170.492 47.7188 170.492C46.8594 170.492 45.8438 170.531 44.6719 170.609C43.5781 170.688 42.6797 170.922 41.9766 171.312C42.0547 172.797 42.1328 174.242 42.2109 175.648C42.3672 177.055 42.4062 178.461 42.3281 179.867C42.3281 180.258 42.2891 180.609 42.2109 180.922C42.1328 181.156 42.0938 181.43 42.0938 181.742C42.0938 182.68 42.1328 183.578 42.2109 184.438C42.2891 185.219 42.3281 186 42.3281 186.781C42.3281 187.172 42.2891 187.602 42.2109 188.07C42.1328 188.461 42.0938 188.891 42.0938 189.359C42.0938 189.75 42.1328 190.141 42.2109 190.531C42.3672 190.922 42.3281 191.312 42.0938 191.703C42.5625 192.719 42.7188 193.812 42.5625 194.984C42.4062 196.156 42.3672 197.289 42.4453 198.383C42.5234 198.773 42.6016 199.086 42.6797 199.32C42.7578 199.477 42.7969 199.672 42.7969 199.906C42.9531 200.531 42.9531 201.156 42.7969 201.781C42.7188 202.406 42.7188 203.07 42.7969 203.773C42.1719 203.93 41.4297 204.203 40.5703 204.594C39.7891 204.906 38.9688 204.906 38.1094 204.594C37.0156 204.438 36.0391 204.477 35.1797 204.711C34.3984 204.945 33.6172 205.141 32.8359 205.297C31.6641 205.453 30.4922 205.414 29.3203 205.18C28.1484 204.867 27.0938 204.477 26.1562 204.008C26.2344 203.539 26.1953 203.148 26.0391 202.836C25.8828 202.445 25.8047 202.094 25.8047 201.781C25.8828 201.391 25.9609 201.117 26.0391 200.961C26.1172 200.805 26.2344 200.57 26.3906 200.258C26.2344 200.023 26.2344 199.828 26.3906 199.672C26.5469 199.438 26.625 199.203 26.625 198.969C26.7031 198.578 26.7031 198.188 26.625 197.797C26.5469 197.328 26.5078 196.898 26.5078 196.508C26.5078 196.195 26.5469 195.883 26.625 195.57C26.7812 195.258 26.8594 194.945 26.8594 194.633C26.8594 193.93 26.7812 193.227 26.625 192.523C26.4688 191.82 26.3906 191.117 26.3906 190.414C26.4688 190.023 26.5469 189.633 26.625 189.242C26.7031 188.852 26.7812 188.422 26.8594 187.953C26.9375 187.797 26.9375 187.602 26.8594 187.367C26.7812 187.133 26.7812 186.898 26.8594 186.664C27.0938 186.039 27.1719 185.609 27.0938 185.375C27.0938 185.141 27.0938 184.945 27.0938 184.789C27.0938 184.398 27.0938 184.047 27.0938 183.734C27.1719 183.344 27.2109 182.914 27.2109 182.445C27.1328 181.43 27.1719 180.727 27.3281 180.336C27.5625 179.867 27.6797 179.438 27.6797 179.047C27.6797 178.656 27.6016 178.305 27.4453 177.992C27.3672 177.68 27.25 177.367 27.0938 177.055C27.0156 176.82 26.9375 176.43 26.8594 175.883C26.7812 175.258 26.7422 174.75 26.7422 174.359C26.7422 173.891 26.8203 173.5 26.9766 173.188C27.1328 172.797 27.2109 172.406 27.2109 172.016C27.0547 171.391 26.9766 171 26.9766 170.844C27.0547 170.609 27.0938 170.414 27.0938 170.258C26.9375 169.789 26.8984 169.516 26.9766 169.438C27.0547 169.281 27.0938 169.125 27.0938 168.969C27.0156 168.344 27.0156 167.914 27.0938 167.68C27.1719 167.367 27.25 167.055 27.3281 166.742C27.4062 166.508 27.4453 166.273 27.4453 166.039C27.4453 165.727 27.4844 165.453 27.5625 165.219C27.4844 164.75 27.4844 164.203 27.5625 163.578C27.6406 162.953 27.6406 162.445 27.5625 162.055C27.5625 161.898 27.5234 161.703 27.4453 161.469C27.3672 161.234 27.2891 161 27.2109 160.766C27.1328 160.375 27.0547 159.672 26.9766 158.656C26.8984 157.562 26.8984 156.664 26.9766 155.961C26.8984 155.18 26.8984 154.633 26.9766 154.32C27.1328 153.93 27.2109 153.539 27.2109 153.148C27.2109 152.836 27.1719 152.523 27.0938 152.211C27.0156 151.82 26.9375 151.43 26.8594 151.039C26.7812 150.414 26.7422 149.789 26.7422 149.164C26.7422 148.539 26.8203 147.875 26.9766 147.172C26.8203 146.312 26.7812 145.609 26.8594 145.062C27.0156 144.516 27.1328 143.93 27.2109 143.305C27.2891 142.914 27.25 142.406 27.0938 141.781C26.9375 141.156 27.0156 140.648 27.3281 140.258C26.9375 139.555 26.7031 138.617 26.625 137.445C26.5469 136.195 26.625 135.258 26.8594 134.633C26.5469 134.242 26.3906 133.773 26.3906 133.227C26.3906 132.68 26.3906 131.977 26.3906 131.117C26.3906 130.414 26.3516 129.594 26.2734 128.656C26.2734 127.719 26.4688 126.938 26.8594 126.312C26.4688 125.375 26.1953 124.281 26.0391 123.031C25.9609 121.781 26.1172 120.609 26.5078 119.516C27.2109 119.281 27.9922 119.203 28.8516 119.281C29.7891 119.359 30.8047 119.359 31.8984 119.281C33.3828 119.125 34.8281 118.891 36.2344 118.578C37.6406 118.266 39.125 118.031 40.6875 117.875C41.4688 117.797 42.2109 117.758 42.9141 117.758C43.6953 117.758 44.4766 117.68 45.2578 117.523C46.2734 117.367 47.2109 117.25 48.0703 117.172C49.0078 117.016 50.1406 117.016 51.4688 117.172C52.0938 117.172 52.4453 117.25 52.5234 117.406C52.6016 117.484 52.6797 117.523 52.7578 117.523C52.9141 117.602 53.1875 117.602 53.5781 117.523C53.9688 117.367 54.3594 117.328 54.75 117.406C56.3125 117.562 57.7969 117.797 59.2031 118.109C60.6875 118.422 62.0938 118.852 63.4219 119.398C63.9688 119.633 64.3594 119.789 64.5938 119.867C64.8281 119.867 65.0234 119.906 65.1797 119.984C65.8828 120.141 66.5469 120.297 67.1719 120.453C67.7969 120.609 68.1875 120.727 68.3438 120.805C69.5156 121.195 70.3359 121.547 70.8047 121.859C71.2734 122.172 71.7422 122.484 72.2109 122.797C72.6797 123.109 73.0312 123.344 73.2656 123.5C73.5781 123.578 73.8516 123.695 74.0859 123.852C74.3203 124.008 74.5547 124.203 74.7891 124.438C75.0234 124.672 75.2578 124.867 75.4922 125.023C76.0391 125.414 76.5469 125.805 77.0156 126.195C77.4844 126.508 78.0312 126.859 78.6562 127.25C78.8906 127.406 79.125 127.562 79.3594 127.719C79.6719 127.875 79.9062 128.031 80.0625 128.188C80.4531 128.734 80.7266 129.047 80.8828 129.125C81.0391 129.125 81.1562 129.164 81.2344 129.242C81.5469 129.555 81.8984 129.984 82.2891 130.531C82.7578 131 83.0703 131.43 83.2266 131.82C83.5391 132.445 83.7344 132.875 83.8125 133.109C83.9688 133.266 84.125 133.422 84.2812 133.578C84.6719 134.281 84.9062 134.867 84.9844 135.336C85.0625 135.805 85.1797 136.234 85.3359 136.625C85.4922 137.016 85.6094 137.367 85.6875 137.68C85.8438 137.992 85.9609 138.344 86.0391 138.734C86.1953 139.203 86.2734 139.672 86.2734 140.141C86.2734 140.609 86.3125 141.078 86.3906 141.547C86.4688 141.938 86.5469 142.367 86.625 142.836C86.7812 143.227 86.8594 143.656 86.8594 144.125ZM71.9766 143.656C72.0547 142.719 71.9375 141.938 71.625 141.312C71.3125 140.688 71.1562 140.023 71.1562 139.32C70.9219 139.008 70.6875 138.734 70.4531 138.5C70.2188 138.188 70.0234 137.914 69.8672 137.68C69.4766 137.055 69.0469 136.547 68.5781 136.156C68.1875 135.766 67.8359 135.297 67.5234 134.75C67.0547 134.438 66.7031 133.891 66.4688 133.109C65.8438 133.188 65.375 133.07 65.0625 132.758C64.8281 132.445 64.3984 132.367 63.7734 132.523C63.3828 132.133 62.9531 131.82 62.4844 131.586C62.0156 131.352 61.5859 131.117 61.1953 130.883C60.3359 130.57 59.5938 130.453 58.9688 130.531C58.3438 130.531 57.7969 130.492 57.3281 130.414H53.5781C52.9531 130.414 52.4062 130.375 51.9375 130.297C51.4688 130.219 50.9609 130.18 50.4141 130.18C50.0234 130.18 49.6328 130.18 49.2422 130.18C48.8516 130.18 48.4609 130.219 48.0703 130.297C47.0547 130.453 46.2734 130.531 45.7266 130.531C45.2578 130.531 44.8281 130.531 44.4375 130.531C43.8906 130.922 43.3047 131.195 42.6797 131.352C42.1328 131.508 41.5469 131.664 40.9219 131.82C41.0781 133.773 41.1953 135.922 41.2734 138.266C41.3516 140.531 41.4688 142.68 41.625 144.711C41.625 145.102 41.625 145.453 41.625 145.766C41.625 146.078 41.7031 146.391 41.8594 146.703C41.9375 147.719 41.8984 148.461 41.7422 148.93C41.5859 149.32 41.5469 149.711 41.625 150.102C41.7031 150.336 41.7812 150.57 41.8594 150.805C42.0156 151.039 42.1328 151.312 42.2109 151.625C42.2891 151.938 42.2891 152.25 42.2109 152.562C42.2109 152.875 42.25 153.227 42.3281 153.617C42.5625 154.086 42.6406 154.477 42.5625 154.789C42.5625 155.023 42.6016 155.219 42.6797 155.375C42.7578 155.609 42.8359 155.844 42.9141 156.078C43.0703 156.312 43.1484 156.586 43.1484 156.898C43.1484 157.68 43.3047 158.344 43.6172 158.891C44.5547 158.969 45.4141 158.93 46.1953 158.773C47.0547 158.617 47.7188 158.461 48.1875 158.305C49.0469 158.148 49.6328 157.992 49.9453 157.836C50.2578 157.68 50.5312 157.523 50.7656 157.367C51.3125 157.211 51.8203 157.133 52.2891 157.133C52.8359 157.133 53.3828 157.055 53.9297 156.898C54.7891 156.508 55.4531 156.273 55.9219 156.195C56.4688 156.039 57.0156 155.961 57.5625 155.961C58.1875 155.727 58.7734 155.531 59.3203 155.375C59.8672 155.141 60.4141 154.945 60.9609 154.789C61.1953 154.711 61.3906 154.672 61.5469 154.672C61.7812 154.672 62.0156 154.633 62.25 154.555C62.7969 154.32 63.1875 154.203 63.4219 154.203C63.7344 154.203 63.9688 154.164 64.125 154.086C64.75 153.852 65.2188 153.578 65.5312 153.266C65.9219 152.953 66.3125 152.836 66.7031 152.914C67.0938 152.367 67.3281 151.977 67.4062 151.742C67.4844 151.508 67.6016 151.312 67.7578 151.156C67.9141 151 68.1484 150.961 68.4609 151.039C68.7734 151.039 69.0078 150.961 69.1641 150.805C69.3984 150.18 69.6719 149.633 69.9844 149.164C70.2969 148.695 70.6094 148.148 70.9219 147.523C70.8438 146.82 70.9609 146.156 71.2734 145.531C71.6641 144.906 71.8984 144.281 71.9766 143.656ZM183.656 165.805C183.656 167.367 183.461 168.969 183.07 170.609C182.758 172.172 182.406 173.656 182.016 175.062C181.938 175.297 181.898 175.531 181.898 175.766C181.898 176 181.859 176.195 181.781 176.352C181.703 176.586 181.547 176.82 181.312 177.055C181.156 177.289 181.039 177.523 180.961 177.758C180.727 178.695 180.609 179.516 180.609 180.219C180.688 180.922 180.57 181.625 180.258 182.328C179.867 182.953 179.594 183.344 179.438 183.5C179.281 183.656 179.125 183.93 178.969 184.32C178.578 184.945 178.266 185.492 178.031 185.961C177.797 186.352 177.523 186.625 177.211 186.781C177.211 186.938 177.172 187.133 177.094 187.367C177.016 187.523 177.016 187.758 177.094 188.07C176.469 188.539 176.039 189.125 175.805 189.828C175.648 190.453 175.297 191.078 174.75 191.703C174.281 192.25 173.969 192.641 173.812 192.875C173.734 193.031 173.617 193.188 173.461 193.344C173.227 193.578 172.992 193.773 172.758 193.93C172.523 194.008 172.289 194.164 172.055 194.398C171.43 195.18 170.883 195.766 170.414 196.156C169.945 196.547 169.633 197.016 169.477 197.562C168.93 197.719 168.539 197.914 168.305 198.148C167.68 198.617 167.328 198.969 167.25 199.203C167.172 199.359 167.055 199.477 166.898 199.555C166.43 199.945 166.039 200.18 165.727 200.258C165.414 200.336 165.18 200.453 165.023 200.609C164.555 201 163.93 201.391 163.148 201.781C162.367 202.094 161.742 202.484 161.273 202.953C160.414 203.344 159.828 203.695 159.516 204.008C159.281 204.242 159.008 204.438 158.695 204.594C158.305 204.828 157.875 204.984 157.406 205.062C157.016 205.141 156.742 205.414 156.586 205.883C155.57 206.195 154.75 206.469 154.125 206.703C153.578 207.016 152.875 207.211 152.016 207.289C151.625 207.68 150.883 207.992 149.789 208.227C148.773 208.539 147.836 208.734 146.977 208.812C146.586 208.812 146.195 208.773 145.805 208.695C145.414 208.695 145.023 208.695 144.633 208.695C144.164 208.773 143.695 208.891 143.227 209.047C142.836 209.281 142.445 209.398 142.055 209.398C141.742 209.477 141.43 209.438 141.117 209.281C140.883 209.125 140.57 208.969 140.18 208.812C139.32 208.891 138.617 208.969 138.07 209.047C137.523 209.203 137.016 209.281 136.547 209.281C136.078 209.359 135.57 209.359 135.023 209.281C134.555 209.203 134.125 209.125 133.734 209.047C133.578 209.203 133.188 209.203 132.562 209.047C132.016 208.969 131.664 208.852 131.508 208.695C130.961 209.086 130.414 209.125 129.867 208.812C129.32 208.5 128.773 208.266 128.227 208.109C127.445 207.875 126.664 207.758 125.883 207.758C125.18 207.836 124.516 207.602 123.891 207.055C122.094 207.055 120.805 206.586 120.023 205.648C118.93 205.414 118.227 205.219 117.914 205.062C117.602 204.906 117.25 204.711 116.859 204.477C116.547 204.164 116.273 203.969 116.039 203.891C115.805 203.734 115.57 203.539 115.336 203.305C114.945 202.992 114.633 202.797 114.398 202.719C114.242 202.641 114.086 202.523 113.93 202.367C113.695 202.133 113.461 201.859 113.227 201.547C113.07 201.234 112.875 201 112.641 200.844C112.25 200.844 111.898 200.766 111.586 200.609C111.352 200.375 111.039 200.062 110.648 199.672C110.258 199.359 109.789 199.008 109.242 198.617C108.773 198.148 108.461 197.68 108.305 197.211C107.836 197.055 107.367 196.898 106.898 196.742C106.43 196.586 106.078 196.352 105.844 196.039C105.219 195.414 104.711 194.906 104.32 194.516C103.93 194.125 103.617 193.734 103.383 193.344C102.992 192.484 102.68 191.938 102.445 191.703C102.211 191.391 101.938 191.117 101.625 190.883C101 190.023 100.492 189.32 100.102 188.773C99.7109 188.227 99.3984 187.758 99.1641 187.367C98.8516 187.133 98.6172 186.859 98.4609 186.547C98.3047 186.234 98.1484 185.922 97.9922 185.609C97.9141 185.219 97.7578 184.867 97.5234 184.555C97.3672 184.242 97.1328 184.008 96.8203 183.852C96.8984 183.148 96.7422 182.602 96.3516 182.211C96.0391 181.742 95.7656 181.234 95.5312 180.688C95.375 180.297 95.2578 179.867 95.1797 179.398C95.1797 178.93 95.1406 178.422 95.0625 177.875C94.9062 177.641 94.75 177.406 94.5938 177.172C94.4375 176.859 94.3594 176.547 94.3594 176.234C94.4375 175.688 94.3984 175.258 94.2422 174.945C94.1641 174.633 94.0859 174.359 94.0078 174.125C93.9297 173.734 93.8906 173.383 93.8906 173.07C93.9688 172.758 93.9688 172.445 93.8906 172.133L93.5391 170.375C93.5391 170.141 93.5391 169.867 93.5391 169.555C93.6172 169.164 93.5 168.891 93.1875 168.734C93.3438 167.953 93.4219 167.406 93.4219 167.094C93.2656 166.391 93.1875 166 93.1875 165.922C93.2656 165.766 93.3047 165.648 93.3047 165.57C93.2266 164.945 93.2266 164.398 93.3047 163.93C93.3828 163.461 93.3438 162.875 93.1875 162.172C93.0312 161.859 92.9922 161.547 93.0703 161.234C93.2266 160.922 93.2656 160.492 93.1875 159.945C93.0312 159.086 92.9141 158.422 92.8359 157.953C92.8359 157.484 92.875 157.094 92.9531 156.781C92.9531 156.469 92.9922 156.195 93.0703 155.961C93.2266 155.727 93.3047 155.453 93.3047 155.141C93.2266 154.359 93.2266 153.852 93.3047 153.617C93.3828 153.305 93.4219 153.07 93.4219 152.914C93.3438 152.68 93.2656 152.445 93.1875 152.211C93.1094 151.977 93.0703 151.781 93.0703 151.625C93.0703 151.234 93.1094 150.844 93.1875 150.453C93.2656 149.984 93.3438 149.555 93.4219 149.164C93.5781 148.695 93.6562 148.227 93.6562 147.758C93.6562 147.289 93.7344 146.898 93.8906 146.586C94.5156 145.648 94.9453 144.867 95.1797 144.242C95.4922 143.539 95.7656 142.914 96 142.367C96.3125 141.586 96.5469 140.805 96.7031 140.023C96.9375 139.242 97.3672 138.617 97.9922 138.148C98.0703 137.523 98.1875 137.016 98.3438 136.625C98.5781 136.234 98.7734 135.805 98.9297 135.336C99.3203 134.555 99.5938 134.047 99.75 133.812C99.9844 133.578 100.18 133.266 100.336 132.875C100.727 132.25 100.961 131.781 101.039 131.469C101.117 131.078 101.195 130.805 101.273 130.648C101.898 130.023 102.328 129.477 102.562 129.008C102.875 128.461 103.109 127.992 103.266 127.602C104.047 127.289 104.672 126.664 105.141 125.727C105.609 125.648 105.922 125.453 106.078 125.141C106.234 124.75 106.625 124.594 107.25 124.672C107.406 124.281 107.758 123.969 108.305 123.734C108.461 123.422 108.617 123.227 108.773 123.148C109.008 123.07 109.203 122.914 109.359 122.68C109.984 122.602 110.492 122.406 110.883 122.094C111.352 121.781 111.82 121.508 112.289 121.273C112.758 121.039 113.227 120.883 113.695 120.805C114.242 120.648 114.789 120.375 115.336 119.984C116.039 120.062 116.586 120.023 116.977 119.867C117.367 119.633 117.758 119.359 118.148 119.047C118.695 119.203 119.203 119.203 119.672 119.047C120.219 118.891 120.688 118.734 121.078 118.578C121.703 118.344 122.445 118.109 123.305 117.875C124.242 117.641 125.141 117.445 126 117.289C126.625 117.133 127.211 117.016 127.758 116.938C128.383 116.781 129.008 116.586 129.633 116.352C130.258 116.195 130.648 116.078 130.805 116C130.961 115.922 131.117 115.883 131.273 115.883C131.43 115.805 131.625 115.805 131.859 115.883C132.094 115.883 132.328 115.883 132.562 115.883C133.188 116.117 133.578 116.234 133.734 116.234C133.891 116.156 134.047 116.117 134.203 116.117C134.984 116.352 135.531 116.469 135.844 116.469C137.172 116.859 138.188 117.094 138.891 117.172C139.594 117.25 140.18 117.523 140.648 117.992C141.195 117.758 141.82 117.68 142.523 117.758C143.305 117.836 144.008 117.875 144.633 117.875C145.023 117.875 145.297 117.992 145.453 118.227C145.609 118.461 145.805 118.617 146.039 118.695C146.898 118.695 147.68 118.812 148.383 119.047C148.93 119.281 149.359 119.398 149.672 119.398C149.984 119.32 150.219 119.32 150.375 119.398C150.609 119.477 150.844 119.594 151.078 119.75C151.391 119.828 151.625 119.906 151.781 119.984C152.484 120.219 153.109 120.414 153.656 120.57C154.281 120.648 154.789 121 155.18 121.625C155.492 121.625 155.688 121.547 155.766 121.391C155.844 121.156 156.078 121.117 156.469 121.273C157.094 121.586 157.797 121.781 158.578 121.859C159.438 121.938 160.258 122.133 161.039 122.445C161.742 122.836 162.172 123.148 162.328 123.383C162.562 123.539 162.758 123.656 162.914 123.734C163.305 123.891 163.656 124.047 163.969 124.203C164.359 124.281 164.594 124.516 164.672 124.906C165.062 124.906 165.375 124.984 165.609 125.141C165.922 125.219 166.195 125.336 166.43 125.492C166.82 125.727 167.172 126 167.484 126.312C167.797 126.625 168.148 126.938 168.539 127.25C169.008 127.797 169.359 128.109 169.594 128.188C169.906 128.266 170.141 128.344 170.297 128.422C170.531 128.734 170.727 129.047 170.883 129.359C171.039 129.594 171.195 129.828 171.352 130.062C171.977 130.141 172.445 130.336 172.758 130.648C173.07 130.961 173.5 131.195 174.047 131.352C174.438 131.977 174.906 132.523 175.453 132.992C176 133.617 176.312 134.086 176.391 134.398C176.547 134.633 176.703 134.867 176.859 135.102C177.016 135.336 177.133 135.609 177.211 135.922C177.289 136.156 177.406 136.43 177.562 136.742C177.797 137.133 178.109 137.641 178.5 138.266C178.891 138.812 179.008 139.516 178.852 140.375C179.242 140.609 179.516 140.961 179.672 141.43C179.828 141.898 180.062 142.367 180.375 142.836C180.766 143.461 180.961 143.93 180.961 144.242C180.961 144.477 181 144.672 181.078 144.828C181.234 145.219 181.352 145.688 181.43 146.234C181.586 146.781 181.703 147.328 181.781 147.875C181.859 148.266 181.859 148.578 181.781 148.812C181.703 149.047 181.703 149.281 181.781 149.516C181.938 150.297 182.133 151.039 182.367 151.742C182.68 152.367 183.031 152.992 183.422 153.617C183.344 154.555 183.305 155.414 183.305 156.195C183.383 156.977 183.383 157.875 183.305 158.891C183.227 159.906 183.266 161 183.422 162.172C183.656 163.266 183.734 164.477 183.656 165.805ZM171 157.602C171 157.211 170.922 156.82 170.766 156.43C170.688 156.039 170.648 155.648 170.648 155.258C170.648 154.867 170.648 154.516 170.648 154.203C170.727 153.812 170.727 153.422 170.648 153.031C170.57 152.719 170.453 152.445 170.297 152.211C170.141 151.977 169.984 151.703 169.828 151.391C169.75 151 169.789 150.727 169.945 150.57C170.18 150.414 170.141 150.219 169.828 149.984C169.594 149.516 169.359 148.969 169.125 148.344C168.969 147.719 168.812 147.094 168.656 146.469C168.109 145.922 167.758 145.57 167.602 145.414C167.445 145.18 167.289 144.945 167.133 144.711C166.664 144.086 166.352 143.656 166.195 143.422C166.117 143.109 166 142.875 165.844 142.719C165.297 142.172 164.672 141.703 163.969 141.312C163.266 140.844 162.562 140.336 161.859 139.789C161.469 139.555 161.117 139.32 160.805 139.086C160.57 138.773 160.258 138.461 159.867 138.148C159.086 137.68 158.578 137.328 158.344 137.094C158.188 136.859 158.031 136.664 157.875 136.508C157.25 136.195 156.547 136.039 155.766 136.039C154.984 135.961 154.32 135.609 153.773 134.984C152.758 135.141 151.742 135.023 150.727 134.633C149.711 134.164 148.539 133.969 147.211 134.047C146.977 133.969 146.781 133.891 146.625 133.812C146.469 133.656 146.234 133.5 145.922 133.344C145.297 133.578 144.789 133.656 144.398 133.578C144.008 133.422 143.617 133.266 143.227 133.109C142.914 133.031 142.641 132.953 142.406 132.875C142.172 132.797 141.938 132.719 141.703 132.641C141.156 132.484 140.609 132.328 140.062 132.172C139.516 132.016 139.008 131.898 138.539 131.82C137.836 131.977 137.25 131.977 136.781 131.82C136.312 131.664 135.883 131.586 135.492 131.586C135.102 131.586 134.672 131.664 134.203 131.82C133.812 131.898 133.461 131.938 133.148 131.938C131.977 131.625 130.883 131.469 129.867 131.469C128.93 131.391 128.227 131.273 127.758 131.117C127.367 130.961 126.977 130.844 126.586 130.766C126.273 130.688 125.961 130.531 125.648 130.297C125.414 130.609 125.18 130.805 124.945 130.883C124.789 130.961 124.633 131.078 124.477 131.234C123.93 131.391 123.5 131.664 123.188 132.055C122.875 132.367 122.523 132.641 122.133 132.875C121.742 133.031 121.312 133.188 120.844 133.344C120.453 133.422 120.062 133.578 119.672 133.812C119.516 133.969 119.359 134.125 119.203 134.281C119.047 134.438 118.891 134.594 118.734 134.75C118.578 134.906 118.383 135.023 118.148 135.102C117.914 135.18 117.719 135.297 117.562 135.453C117.172 135.766 116.82 136.117 116.508 136.508C116.273 136.82 115.922 137.055 115.453 137.211C115.297 137.602 115.023 137.992 114.633 138.383C114.32 138.773 114.047 139.164 113.812 139.555C113.5 139.945 113.188 140.336 112.875 140.727C112.641 141.117 112.289 141.391 111.82 141.547C111.82 142.172 111.703 142.68 111.469 143.07C111.234 143.383 111.078 143.852 111 144.477C110.531 145.102 110.219 145.57 110.062 145.883C109.906 146.195 109.75 146.547 109.594 146.938C109.203 147.797 108.891 148.383 108.656 148.695C108.5 149.008 108.344 149.32 108.188 149.633C107.875 150.414 107.602 150.961 107.367 151.273C107.055 151.898 106.82 152.406 106.664 152.797C106.508 153.109 106.352 153.656 106.195 154.438C106.039 155.219 105.844 156.078 105.609 157.016C105.453 157.875 105.414 158.578 105.492 159.125C105.336 159.672 105.258 160.102 105.258 160.414C105.336 160.648 105.336 160.883 105.258 161.117C104.789 162.836 104.594 164.281 104.672 165.453C104.828 166.547 104.984 167.641 105.141 168.734C105.219 169.594 105.219 170.414 105.141 171.195C105.062 171.898 105.102 172.523 105.258 173.07C105.258 173.383 105.336 173.695 105.492 174.008C105.648 174.242 105.805 174.477 105.961 174.711C106.039 175.102 106.078 175.453 106.078 175.766C106.078 176 106.156 176.312 106.312 176.703C106.625 177.562 106.859 178.305 107.016 178.93C107.172 179.555 107.328 179.984 107.484 180.219C107.719 180.531 107.953 180.805 108.188 181.039C108.5 181.195 108.773 181.43 109.008 181.742C109.242 182.055 109.438 182.367 109.594 182.68C109.75 182.992 109.945 183.344 110.18 183.734C110.648 184.359 110.922 184.789 111 185.023C111.156 185.18 111.312 185.336 111.469 185.492C111.703 185.805 111.938 186.078 112.172 186.312C112.484 186.469 112.758 186.703 112.992 187.016C113.227 187.328 113.422 187.68 113.578 188.07C113.812 188.383 114.047 188.734 114.281 189.125C115.453 189.75 116.508 190.453 117.445 191.234C118.383 191.938 119.32 192.758 120.258 193.695C121.273 193.852 122.25 194.125 123.188 194.516C124.203 194.906 125.141 195.258 126 195.57C126.312 195.648 126.625 195.766 126.938 195.922C127.328 196 127.719 196.078 128.109 196.156C128.422 196.156 128.734 196.117 129.047 196.039C129.359 195.961 129.711 195.922 130.102 195.922C130.805 196 131.391 196.156 131.859 196.391C132.406 196.547 132.992 196.703 133.617 196.859C134.32 196.938 134.984 196.977 135.609 196.977C136.234 196.898 136.859 197.016 137.484 197.328C137.875 197.094 138.188 196.977 138.422 196.977C138.734 196.977 139.086 197.016 139.477 197.094C140.258 196.547 141.156 196.312 142.172 196.391C143.188 196.469 144.203 196.391 145.219 196.156C145.609 195.844 145.883 195.688 146.039 195.688C146.195 195.688 146.352 195.648 146.508 195.57C147.055 195.336 147.523 195.102 147.914 194.867C148.305 194.633 148.734 194.438 149.203 194.281C149.438 194.203 149.711 194.125 150.023 194.047C150.336 193.969 150.609 193.891 150.844 193.812C151.234 193.344 151.547 193.07 151.781 192.992C152.016 192.914 152.211 192.836 152.367 192.758C152.602 192.602 152.836 192.445 153.07 192.289C153.305 192.055 153.617 191.977 154.008 192.055C154.242 191.586 154.555 191.273 154.945 191.117C155.414 190.883 155.922 190.688 156.469 190.531C156.625 190.219 156.781 190.023 156.938 189.945C157.094 189.789 157.25 189.633 157.406 189.477C157.797 189.086 158.109 188.773 158.344 188.539C158.578 188.305 158.734 188.148 158.812 188.07C159.359 187.289 159.984 186.547 160.688 185.844C160.766 185.453 160.883 185.219 161.039 185.141C161.273 184.984 161.469 184.828 161.625 184.672C161.703 184.281 161.82 183.93 161.977 183.617C162.133 183.227 162.289 182.875 162.445 182.562C162.602 182.172 162.758 181.859 162.914 181.625C163.148 181.312 163.266 180.922 163.266 180.453C163.656 180.297 163.891 180.062 163.969 179.75C164.125 179.359 164.281 178.969 164.438 178.578C164.906 177.719 165.219 177.133 165.375 176.82C165.609 176.508 165.805 176.234 165.961 176C166.117 175.688 166.234 175.453 166.312 175.297C166.391 175.062 166.508 174.828 166.664 174.594C166.977 173.734 167.211 173.188 167.367 172.953C167.523 172.719 167.641 172.523 167.719 172.367C167.797 172.055 167.797 171.742 167.719 171.43C167.719 171.039 167.797 170.648 167.953 170.258C168.109 169.945 168.266 169.672 168.422 169.438C168.656 169.125 168.812 168.695 168.891 168.148C168.969 167.836 168.93 167.523 168.773 167.211C168.695 166.82 168.695 166.43 168.773 166.039C168.852 165.727 168.969 165.414 169.125 165.102C169.281 164.789 169.438 164.438 169.594 164.047C169.75 163.5 169.906 162.953 170.062 162.406C170.297 161.859 170.375 161.469 170.297 161.234C170.453 160.688 170.531 160.297 170.531 160.062C170.531 159.75 170.531 159.516 170.531 159.359C170.609 158.969 170.688 158.656 170.766 158.422C170.922 158.188 171 157.914 171 157.602ZM245.883 130.414C246.039 131.039 245.883 131.586 245.414 132.055C245.023 132.523 244.75 133.148 244.594 133.93C244.438 134.086 244.242 134.242 244.008 134.398C243.773 134.477 243.578 134.672 243.422 134.984C243.109 135.609 242.758 135.961 242.367 136.039C242.133 136.664 241.82 137.172 241.43 137.562C241.117 137.953 240.805 138.422 240.492 138.969C240.492 139.359 240.336 139.594 240.023 139.672C239.789 139.672 239.594 139.75 239.438 139.906C239.203 141.391 238.5 142.523 237.328 143.305C236.469 143.227 235.609 143.031 234.75 142.719C234.516 142.484 234.398 142.172 234.398 141.781C234.477 141.391 234.438 141.039 234.281 140.727C234.125 140.414 233.969 140.141 233.812 139.906C233.656 139.672 233.5 139.398 233.344 139.086C233.188 138.852 232.992 138.617 232.758 138.383C232.523 138.148 232.328 137.953 232.172 137.797C231.938 137.328 231.703 137.055 231.469 136.977C231.234 136.82 231.078 136.703 231 136.625C230.844 136.391 230.688 136.156 230.531 135.922C230.375 135.688 230.219 135.453 230.062 135.219C229.906 135.062 229.711 134.867 229.477 134.633C229.32 134.398 229.164 134.203 229.008 134.047C228.617 133.812 228.344 133.695 228.188 133.695C228.031 133.617 227.914 133.5 227.836 133.344C226.742 132.875 225.766 132.641 224.906 132.641C224.047 132.641 223.305 132.602 222.68 132.523C222.445 132.523 222.211 132.484 221.977 132.406C221.742 132.328 221.469 132.289 221.156 132.289C221 132.289 220.805 132.328 220.57 132.406C220.336 132.484 220.102 132.562 219.867 132.641C219.633 132.719 219.398 132.758 219.164 132.758C218.93 132.68 218.734 132.68 218.578 132.758C218.266 132.914 217.992 133.148 217.758 133.461C217.523 133.695 217.211 133.812 216.82 133.812C216.43 134.594 216 135.18 215.531 135.57C215.141 135.883 214.867 136.234 214.711 136.625C214.633 136.859 214.516 137.367 214.359 138.148C214.203 138.773 214.008 139.516 213.773 140.375C213.539 141.234 213.461 142.016 213.539 142.719C213.539 143.656 213.695 144.477 214.008 145.18C214.32 145.805 214.555 146.508 214.711 147.289C215.023 147.445 215.219 147.641 215.297 147.875C215.453 148.109 215.609 148.383 215.766 148.695C216 148.93 216.195 149.164 216.352 149.398C216.586 149.633 216.898 149.789 217.289 149.867C217.289 150.258 217.367 150.531 217.523 150.688C217.68 150.844 217.758 151.078 217.758 151.391C218.539 151.859 219.242 152.445 219.867 153.148C220.18 153.695 220.453 154.047 220.688 154.203C221 154.281 221.078 154.477 220.922 154.789C221.469 154.945 221.859 155.141 222.094 155.375C222.328 155.609 222.523 155.805 222.68 155.961C223.539 156.43 224.164 156.938 224.555 157.484C224.945 157.953 225.453 158.344 226.078 158.656C226.156 159.047 226.312 159.359 226.547 159.594C226.781 159.828 226.938 160.141 227.016 160.531C227.406 160.453 227.68 160.531 227.836 160.766C227.992 161 228.305 161.078 228.773 161C228.93 161.391 229.125 161.664 229.359 161.82C229.672 161.977 229.984 162.133 230.297 162.289C231.156 162.992 231.859 163.539 232.406 163.93C232.953 164.32 233.461 164.75 233.93 165.219C234.086 165.453 234.242 165.648 234.398 165.805C234.555 165.883 234.711 166 234.867 166.156C235.961 167.172 236.82 168.07 237.445 168.852C238.07 169.555 238.695 170.18 239.32 170.727C239.633 171.898 240.18 172.992 240.961 174.008C241.039 174.789 241.391 175.492 242.016 176.117C241.938 176.898 242.016 177.562 242.25 178.109C242.484 178.578 242.719 179.047 242.953 179.516C243.109 179.906 243.227 180.375 243.305 180.922C243.461 181.469 243.5 181.938 243.422 182.328C243.5 182.719 243.5 183.031 243.422 183.266C243.344 183.422 243.344 183.617 243.422 183.852C243.422 184.242 243.461 184.633 243.539 185.023C243.695 185.414 243.812 185.844 243.891 186.312C243.734 187.094 243.695 187.641 243.773 187.953C243.852 188.188 243.891 188.422 243.891 188.656C243.812 189.125 243.695 189.594 243.539 190.062C243.383 190.531 243.383 191 243.539 191.469C243.07 191.938 242.953 192.445 243.188 192.992C243.109 193.383 242.992 193.656 242.836 193.812C242.68 193.969 242.523 194.164 242.367 194.398C242.445 195.102 242.367 195.727 242.133 196.273C241.977 196.664 241.742 197.055 241.43 197.445C241.195 197.836 240.883 198.07 240.492 198.148C240.57 198.695 240.492 199.047 240.258 199.203C240.102 199.281 239.984 199.398 239.906 199.555C239.672 200.18 239.281 200.727 238.734 201.195C238.266 201.586 237.875 201.977 237.562 202.367C237.25 202.758 236.898 203.148 236.508 203.539C236.117 203.93 235.727 204.32 235.336 204.711C235.102 204.945 234.828 205.219 234.516 205.531C234.281 205.844 234.086 206.078 233.93 206.234C233.773 206.391 233.5 206.508 233.109 206.586C232.797 206.664 232.445 206.781 232.055 206.938C231.195 207.328 230.492 207.602 229.945 207.758C229.477 207.914 228.93 208.031 228.305 208.109C227.523 208.188 227.016 208.266 226.781 208.344C226.625 208.5 226.469 208.578 226.312 208.578C225.922 208.578 225.57 208.5 225.258 208.344C225.023 208.266 224.75 208.188 224.438 208.109C223.812 208.422 223.188 208.539 222.562 208.461C221.938 208.383 221.195 208.266 220.336 208.109C219.945 208.031 219.398 207.953 218.695 207.875C218.07 207.875 217.562 207.758 217.172 207.523C216.703 207.68 216.195 207.875 215.648 208.109C214.867 207.875 214.086 207.719 213.305 207.641C212.523 207.562 211.703 207.406 210.844 207.172C210.531 207.094 210.219 206.977 209.906 206.82C209.594 206.664 209.281 206.508 208.969 206.352C208.578 206.195 208.188 206.117 207.797 206.117C207.406 206.195 207.055 206.156 206.742 206C206.508 205.844 206.273 205.688 206.039 205.531C205.805 205.297 205.57 205.102 205.336 204.945C204.789 204.555 204.32 204.281 203.93 204.125C203.617 203.969 203.383 203.695 203.227 203.305C202.445 203.461 201.898 203.305 201.586 202.836C201.273 202.367 200.805 202.133 200.18 202.133C200.023 201.977 199.945 201.781 199.945 201.547C200.023 201.234 199.984 201 199.828 200.844C199.438 200.688 199.164 200.688 199.008 200.844C198.93 201 198.734 201.039 198.422 200.961C198.266 200.648 198.109 200.414 197.953 200.258C197.875 200.102 197.758 199.867 197.602 199.555C197.445 199.398 197.172 199.242 196.781 199.086C196.391 198.93 196.039 198.656 195.727 198.266C195.492 197.875 195.297 197.641 195.141 197.562C194.984 197.406 194.867 197.289 194.789 197.211C194.32 196.508 193.93 195.844 193.617 195.219C193.383 194.516 193.07 193.969 192.68 193.578V192.055C192.211 191.195 191.664 190.375 191.039 189.594C190.492 188.812 190.219 187.758 190.219 186.43C190.453 186.273 190.609 186.117 190.688 185.961C190.844 185.727 191 185.531 191.156 185.375C191.391 185.219 191.625 185.141 191.859 185.141C192.172 185.062 192.445 184.945 192.68 184.789C193.07 184.555 193.5 184.359 193.969 184.203C194.438 184.047 194.75 183.695 194.906 183.148C195.297 183.148 195.648 183.07 195.961 182.914C196.273 182.758 196.625 182.602 197.016 182.445C197.562 182.055 197.914 181.859 198.07 181.859C198.227 181.781 198.383 181.703 198.539 181.625C198.773 181.391 198.969 181.156 199.125 180.922C199.359 180.688 199.594 180.492 199.828 180.336C200.297 180.492 200.57 180.531 200.648 180.453C200.805 180.297 201.195 180.375 201.82 180.688C202.68 181.234 203.305 182.289 203.695 183.852C203.852 184.633 204.047 185.219 204.281 185.609C204.594 186 204.867 186.391 205.102 186.781C205.414 187.25 205.922 187.836 206.625 188.539C207.328 189.242 207.992 189.789 208.617 190.18C209.008 190.414 209.438 190.727 209.906 191.117C210.375 191.508 210.727 191.781 210.961 191.938C211.195 192.016 211.469 192.055 211.781 192.055C212.172 192.055 212.562 192.094 212.953 192.172C213.266 192.25 213.539 192.328 213.773 192.406C214.008 192.484 214.242 192.523 214.477 192.523C215.805 192.68 216.898 192.758 217.758 192.758C218.617 192.68 219.594 192.484 220.688 192.172C221.312 192.016 221.898 191.859 222.445 191.703C223.07 191.469 223.617 191.195 224.086 190.883C224.711 190.414 225.18 189.984 225.492 189.594C225.883 189.203 226.273 188.617 226.664 187.836C226.82 187.289 226.938 186.977 227.016 186.898C227.172 186.742 227.25 186.586 227.25 186.43C227.328 186.195 227.367 185.922 227.367 185.609C227.367 185.297 227.406 184.945 227.484 184.555C227.562 184.242 227.641 183.93 227.719 183.617C227.797 183.227 227.875 182.953 227.953 182.797C227.953 182.172 227.875 181.625 227.719 181.156C227.562 180.609 227.445 180.023 227.367 179.398C227.055 179.008 226.703 178.617 226.312 178.227C225.922 177.836 225.648 177.328 225.492 176.703C224.867 176.156 224.203 175.609 223.5 175.062C222.875 174.516 222.484 173.695 222.328 172.602C222.094 172.445 221.82 172.367 221.508 172.367C221.195 172.289 220.922 172.172 220.688 172.016C220.688 171.234 220.453 170.609 219.984 170.141C219.594 169.672 219.164 169.203 218.695 168.734C218.539 168.422 218.383 168.227 218.227 168.148C218.148 167.992 217.992 167.836 217.758 167.68C217.445 167.133 217.133 166.82 216.82 166.742C216.352 166.352 215.844 165.961 215.297 165.57C214.359 164.867 213.422 164.008 212.484 162.992C211.625 161.898 210.648 160.961 209.555 160.18C209.477 159.555 209.281 159.047 208.969 158.656C208.656 158.266 208.305 157.914 207.914 157.602C207.523 155.883 206.781 154.477 205.688 153.383C205.766 152.992 205.727 152.68 205.57 152.445C205.414 152.211 205.258 151.898 205.102 151.508C204.867 150.961 204.672 150.609 204.516 150.453C204.359 150.219 204.242 150.062 204.164 149.984C204.008 149.359 203.891 148.734 203.812 148.109C203.812 147.406 203.656 146.742 203.344 146.117C203.422 145.805 203.5 145.531 203.578 145.297C203.734 145.062 203.812 144.75 203.812 144.359C203.578 143.5 203.461 142.914 203.461 142.602C203.461 142.289 203.344 142.133 203.109 142.133C203.266 141.586 203.227 141.078 202.992 140.609C202.758 140.062 202.602 139.516 202.523 138.969C202.523 138.422 202.562 137.875 202.641 137.328C202.719 136.703 202.797 136.195 202.875 135.805C202.797 135.18 202.875 134.555 203.109 133.93C203.344 133.305 203.539 132.836 203.695 132.523C203.93 131.742 204.242 131.039 204.633 130.414C205.023 129.789 205.375 129.164 205.688 128.539C206.078 127.914 206.312 127.328 206.391 126.781C206.938 126.469 207.289 126.117 207.445 125.727C207.602 125.336 207.875 124.945 208.266 124.555C209.203 123.773 209.789 123.305 210.023 123.148C210.492 122.758 210.961 122.406 211.43 122.094C211.977 121.781 212.445 121.508 212.836 121.273C213.617 121.039 214.086 120.844 214.242 120.688C214.398 120.531 214.555 120.453 214.711 120.453C215.336 120.375 215.727 120.297 215.883 120.219C216.039 120.141 216.156 120.102 216.234 120.102C216.781 119.945 217.328 119.867 217.875 119.867C218.422 119.867 219.008 119.828 219.633 119.75C220.023 119.75 220.453 119.75 220.922 119.75C221.391 119.672 221.938 119.711 222.562 119.867C222.875 119.945 223.148 120.062 223.383 120.219C223.617 120.297 223.891 120.375 224.203 120.453C225.375 120.609 226.625 120.609 227.953 120.453C228.188 120.609 228.422 120.805 228.656 121.039C228.969 121.195 229.242 121.352 229.477 121.508C230.648 121.664 231.547 122.055 232.172 122.68C233.422 122.914 234.359 123.266 234.984 123.734C235.609 124.125 236.195 124.516 236.742 124.906C236.977 124.984 237.172 125.062 237.328 125.141C237.484 125.219 237.719 125.219 238.031 125.141C238.266 125.609 238.539 126 238.852 126.312C239.242 126.547 239.594 126.82 239.906 127.133C240.844 127.523 241.586 127.797 242.133 127.953C242.758 128.109 243.305 128.344 243.773 128.656C244.008 128.812 244.242 128.93 244.477 129.008C244.711 129.008 244.906 129.086 245.062 129.242C245.453 129.477 245.727 129.867 245.883 130.414ZM304.477 133.344C304.555 133.969 304.633 134.516 304.711 134.984C304.789 135.453 304.633 135.883 304.242 136.273C303.617 136.273 303.031 136.312 302.484 136.391C301.938 136.391 301.273 136.312 300.492 136.156C299.789 136 299.242 135.922 298.852 135.922C298.539 135.922 298.227 135.922 297.914 135.922C297.602 135.922 297.328 135.922 297.094 135.922C296.938 135.844 296.703 135.766 296.391 135.688H295.102C294.008 135.531 292.953 135.531 291.938 135.688C291 135.844 289.984 136 288.891 136.156C288.891 136.938 288.93 137.406 289.008 137.562C289.008 137.719 289.047 137.797 289.125 137.797C288.969 138.422 288.891 138.852 288.891 139.086C288.969 139.32 289.008 139.555 289.008 139.789C289.008 140.023 288.969 140.258 288.891 140.492C288.812 140.727 288.812 140.961 288.891 141.195C288.891 141.352 288.93 141.547 289.008 141.781C289.086 142.016 289.164 142.25 289.242 142.484C289.242 142.953 289.203 143.5 289.125 144.125C289.047 144.75 289.047 145.375 289.125 146C289.125 146.234 289.164 146.469 289.242 146.703C289.32 146.938 289.398 147.211 289.477 147.523C289.555 147.758 289.555 148.031 289.477 148.344C289.477 148.656 289.516 148.93 289.594 149.164C289.672 149.555 289.75 149.867 289.828 150.102C289.984 150.336 290.102 150.648 290.18 151.039C290.18 151.43 290.18 151.898 290.18 152.445C290.258 152.992 290.297 153.461 290.297 153.852C290.219 154.242 290.102 154.672 289.945 155.141C289.867 155.531 289.828 155.922 289.828 156.312C289.828 156.703 289.906 157.055 290.062 157.367C290.297 157.68 290.453 158.031 290.531 158.422C290.688 159.047 290.727 159.672 290.648 160.297C290.57 160.844 290.57 161.43 290.648 162.055C290.648 162.289 290.688 162.523 290.766 162.758C290.922 162.992 291 163.266 291 163.578C291.078 163.891 291.078 164.203 291 164.516C290.922 164.75 290.922 164.984 291 165.219C291.078 165.766 291.312 166.469 291.703 167.328C291.859 167.875 291.898 168.539 291.82 169.32C291.664 170.023 291.625 170.531 291.703 170.844C291.859 171.156 291.938 171.43 291.938 171.664C292.094 172.758 292.133 173.891 292.055 175.062C291.977 176.156 292.094 177.25 292.406 178.344C292.25 178.578 292.172 178.852 292.172 179.164C292.172 179.398 292.094 179.594 291.938 179.75C292.25 180.531 292.445 181.117 292.523 181.508C292.523 181.82 292.484 182.094 292.406 182.328C292.328 182.562 292.289 182.836 292.289 183.148C292.289 183.539 292.328 183.852 292.406 184.086C292.484 184.32 292.562 184.555 292.641 184.789C292.641 185.102 292.602 185.375 292.523 185.609C292.445 185.844 292.406 186.156 292.406 186.547C292.406 186.781 292.406 187.055 292.406 187.367C292.484 187.602 292.523 187.836 292.523 188.07C292.523 188.695 292.523 189.281 292.523 189.828C292.602 190.297 292.602 190.766 292.523 191.234C292.445 191.391 292.328 191.586 292.172 191.82C292.094 192.055 292.055 192.289 292.055 192.523C292.055 192.914 292.055 193.344 292.055 193.812C292.133 194.281 292.172 194.711 292.172 195.102C292.016 195.727 291.977 196.156 292.055 196.391C292.133 196.625 292.172 196.82 292.172 196.977C292.094 197.445 291.977 197.953 291.82 198.5C291.742 199.047 291.703 199.516 291.703 199.906C292.016 200.766 292.211 201.391 292.289 201.781C292.367 202.172 292.484 202.562 292.641 202.953C292.797 203.422 292.836 203.734 292.758 203.891C292.758 204.047 292.758 204.359 292.758 204.828C292.758 205.062 292.797 205.336 292.875 205.648C293.031 205.961 292.914 206.234 292.523 206.469C292.914 206.781 293.266 207.133 293.578 207.523C293.891 207.914 293.93 208.539 293.695 209.398C293.539 209.945 293.188 210.258 292.641 210.336C292.172 210.492 291.781 210.766 291.469 211.156C290.141 210.844 289.008 210.609 288.07 210.453C287.133 210.375 286.273 210.18 285.492 209.867C285.102 209.945 284.789 210.023 284.555 210.102C284.32 210.18 284.008 210.258 283.617 210.336C283.227 210.336 282.875 210.336 282.562 210.336C282.328 210.336 282.133 210.258 281.977 210.102C281.742 210.414 281.43 210.57 281.039 210.57C280.648 210.57 280.141 210.609 279.516 210.688C278.812 210.688 278.383 210.727 278.227 210.805C278.148 210.883 278.031 210.961 277.875 211.039C277.641 211.117 277.289 211.117 276.82 211.039C276.352 211.039 275.961 211.078 275.648 211.156C275.258 211.234 274.828 211.273 274.359 211.273C273.891 211.352 273.461 211.273 273.07 211.039C272.445 210.883 272.133 210.453 272.133 209.75C272.211 209.125 272.094 208.578 271.781 208.109C271.859 207.641 272.016 207.25 272.25 206.938C272.562 206.703 272.602 206.352 272.367 205.883C272.602 205.57 272.836 205.297 273.07 205.062C273.305 204.75 273.5 204.438 273.656 204.125C273.812 203.734 273.891 203.305 273.891 202.836C273.891 202.367 273.969 201.977 274.125 201.664C274.281 201.352 274.32 201.078 274.242 200.844C274.164 200.609 274.125 200.297 274.125 199.906C274.125 199.359 274.164 198.852 274.242 198.383C274.32 197.836 274.203 197.289 273.891 196.742C274.125 196.273 274.242 195.805 274.242 195.336C274.242 194.789 274.242 194.32 274.242 193.93C274.398 193.305 274.398 192.836 274.242 192.523C274.164 192.211 274.125 191.938 274.125 191.703C274.125 191.312 274.203 190.961 274.359 190.648C274.516 190.258 274.594 189.867 274.594 189.477C274.359 188.617 274.281 187.992 274.359 187.602C274.438 187.133 274.477 186.781 274.477 186.547C274.477 185.844 274.359 185.258 274.125 184.789C274.125 183.852 274.125 183.109 274.125 182.562C274.203 181.938 274.242 181.312 274.242 180.688C274.164 179.984 274.125 179.203 274.125 178.344C274.125 177.406 274.047 176.586 273.891 175.883C273.656 174.242 273.656 172.797 273.891 171.547C274.125 170.297 273.93 169.203 273.305 168.266C273.617 167.172 273.656 165.922 273.422 164.516C273.188 163.109 273.227 161.938 273.539 161C273.617 160.531 273.5 160.297 273.188 160.297C272.875 160.219 272.758 159.984 272.836 159.594C272.836 158.969 272.836 158.344 272.836 157.719C272.836 157.016 272.758 156.391 272.602 155.844C272.211 155.141 272.055 154.086 272.133 152.68C272.289 151.195 272.406 149.945 272.484 148.93C272.328 148.539 272.172 148.266 272.016 148.109C271.938 147.875 271.859 147.562 271.781 147.172C271.625 146.547 271.625 145.922 271.781 145.297C272.016 144.672 272.172 144.008 272.25 143.305C272.328 142.758 272.328 142.25 272.25 141.781C272.25 141.234 272.289 140.766 272.367 140.375C272.445 139.75 272.406 139.008 272.25 138.148C272.094 137.289 272.016 136.508 272.016 135.805C271.078 135.883 270.141 136 269.203 136.156C268.266 136.234 267.289 136.312 266.273 136.391C265.57 136.312 264.789 136.312 263.93 136.391C263.148 136.469 262.484 136.547 261.938 136.625C260.844 136.938 259.945 137.094 259.242 137.094C258.539 137.016 257.875 137.016 257.25 137.094C256.312 137.25 255.336 137.484 254.32 137.797C253.383 138.031 252.367 138.031 251.273 137.797C250.883 137.172 250.727 136.508 250.805 135.805C250.883 135.023 250.883 134.398 250.805 133.93C250.727 133.539 250.688 133.227 250.688 132.992C250.688 132.68 250.688 132.289 250.688 131.82C250.844 131.195 250.844 130.805 250.688 130.648C250.609 130.492 250.531 130.375 250.453 130.297C250.375 129.906 250.375 129.477 250.453 129.008C250.531 128.539 250.57 128.109 250.57 127.719C250.57 127.328 250.453 127.094 250.219 127.016C249.906 126.938 249.789 126.703 249.867 126.312C249.867 125.766 249.828 125.18 249.75 124.555C249.672 123.93 249.594 123.305 249.516 122.68C249.438 121.977 249.477 121.352 249.633 120.805C249.711 120.18 249.945 119.672 250.336 119.281C250.727 119.125 251.117 119.047 251.508 119.047C251.898 118.969 252.406 119.008 253.031 119.164C254.047 119.32 254.789 119.477 255.258 119.633C255.727 119.789 256.156 119.906 256.547 119.984C256.781 119.984 257.016 119.945 257.25 119.867C257.562 119.789 257.914 119.75 258.305 119.75C258.695 119.75 259.047 119.789 259.359 119.867C259.672 119.945 260.023 119.984 260.414 119.984C260.727 120.062 261.078 120.102 261.469 120.102C261.625 120.102 261.781 120.141 261.938 120.219C262.328 120.219 262.719 120.141 263.109 119.984C263.5 119.828 263.891 119.75 264.281 119.75C264.75 119.75 265.219 119.828 265.688 119.984C266.156 120.062 266.625 120.141 267.094 120.219C267.328 120.219 267.562 120.219 267.797 120.219C268.031 120.141 268.305 120.062 268.617 119.984C269.32 119.984 269.789 119.945 270.023 119.867C270.336 119.789 270.609 119.711 270.844 119.633C271.078 119.633 271.273 119.672 271.43 119.75C271.664 119.828 271.898 119.867 272.133 119.867C273.07 119.555 273.891 119.438 274.594 119.516C275.297 119.594 275.922 119.555 276.469 119.398C276.781 119.398 276.977 119.477 277.055 119.633C277.211 119.789 277.406 119.906 277.641 119.984C278.109 119.828 278.461 119.75 278.695 119.75C279.008 119.672 279.32 119.828 279.633 120.219C279.945 119.984 280.258 119.789 280.57 119.633C280.883 119.477 281.273 119.398 281.742 119.398C282.055 119.32 282.445 119.398 282.914 119.633C283.383 119.789 283.891 119.828 284.438 119.75C284.75 119.906 285.219 119.945 285.844 119.867C286.547 119.789 287.016 119.906 287.25 120.219C287.641 120.141 287.992 120.102 288.305 120.102C288.617 120.023 288.93 119.945 289.242 119.867C290.258 119.867 290.922 119.906 291.234 119.984C291.469 119.984 291.664 120.023 291.82 120.102C292.055 120.18 292.328 120.258 292.641 120.336C293.266 120.492 293.93 120.57 294.633 120.57C295.336 120.492 296 120.453 296.625 120.453C297.719 120.375 298.812 120.258 299.906 120.102C301.078 119.867 301.977 119.906 302.602 120.219C302.758 120.297 302.992 120.531 303.305 120.922C303.695 121.312 303.93 121.586 304.008 121.742C304.086 121.898 304.125 122.133 304.125 122.445C304.125 122.758 304.125 123.031 304.125 123.266C304.203 124.281 304.164 125.375 304.008 126.547C303.93 127.719 303.93 128.891 304.008 130.062C304.008 130.688 304.047 131.273 304.125 131.82C304.281 132.367 304.398 132.875 304.477 133.344Z" fill="white"/>
</g>
<defs>
<filter id="filter0_d_307_16" x="15.8047" y="115.766" width="289.023" height="105.625" filterUnits="userSpaceOnUse" color-interpolation-filters="sRGB">
<feFlood flood-opacity="0" result="BackgroundImageFix"/>
<feColorMatrix in="SourceAlpha" type="matrix" values="0 0 0 0 0 0 0 0 0 0 0 0 0 0 0 0 0 0 127 0" result="hardAlpha"/>
<feOffset dx="-10" dy="10"/>
<feComposite in2="hardAlpha" operator="out"/>
<feColorMatrix type="matrix" values="0 0 0 0 0 0 0 0 0 0 0 0 0 0 0 0 0 0 1 0"/>
<feBlend mode="normal" in2="BackgroundImageFix" result="effect1_dropShadow_307_16"/>
<feBlend mode="normal" in="SourceGraphic" in2="effect1_dropShadow_307_16" result="shape"/>
</filter>
</defs>
</svg>
